<svg width="20" height="21" viewBox="0 0 20 21" fill="none" xmlns="http://www.w3.org/2000/svg">
<path d="M10 0.5C10.3315 0.5 10.6495 0.631696 10.8839 0.866117C11.1183 1.10054 11.25 1.41848 11.25 1.75V9.25H18.75C19.0815 9.25 19.3995 9.3817 19.6339 9.61612C19.8683 9.85054 20 10.1685 20 10.5C20 10.8315 19.8683 11.1495 19.6339 11.3839C19.3995 11.6183 19.0815 11.75 18.75 11.75H11.25V19.25C11.25 19.5815 11.1183 19.8995 10.8839 20.1339C10.6495 20.3683 10.3315 20.5 10 20.5C9.66848 20.5 9.35054 20.3683 9.11612 20.1339C8.8817 19.8995 8.75 19.5815 8.75 19.25V11.75H1.25C0.918479 11.75 0.600537 11.6183 0.366117 11.3839C0.131696 11.1495 0 10.8315 0 10.5C0 10.1685 0.131696 9.85054 0.366117 9.61612C0.600537 9.3817 0.918479 9.25 1.25 9.25H8.75V1.75C8.75 1.41848 8.8817 1.10054 9.11612 0.866117C9.35054 0.631696 9.66848 0.5 10 0.5Z" fill="#242324"/>
</svg>
