<svg width="147" height="141" viewBox="0 0 147 141" fill="none" xmlns="http://www.w3.org/2000/svg">
<path d="M16.2167 14.101L29.7726 92.6797C30.0202 94.3256 30.8664 95.8326 32.1597 96.9308C33.524 98.0995 35.2929 98.7311 37.1164 98.7003H117.299C118.831 98.7007 120.325 98.2351 121.569 97.3696C122.812 96.5041 123.742 95.2825 124.226 93.8782L146.126 30.4287C146.491 29.3688 146.591 28.2403 146.416 27.136C146.242 26.0317 145.798 24.9834 145.121 24.0773C144.445 23.1713 143.555 22.4334 142.525 21.9246C141.495 21.4158 140.355 21.1507 139.198 21.1509H32.2327L29.6266 5.99354C29.3591 4.26174 28.4293 2.68963 27.0206 1.58733C25.6855 0.533849 24.0068 -0.0282098 22.2829 0.00109033H7.79991C5.86386 0.00109033 4.00709 0.74385 2.63809 2.06597C1.2691 3.38809 0.5 5.18127 0.5 7.05104C0.5 8.9208 1.2691 10.714 2.63809 12.0361C4.00709 13.3582 5.86386 14.101 7.79991 14.101H16.2167ZM43.1826 84.6004L34.6636 35.2508H129.073L112.035 84.6004H43.1826ZM58.8993 126.9C58.8993 130.64 57.3611 134.226 54.6231 136.87C51.8851 139.514 48.1716 141 44.2995 141C40.4274 141 36.7138 139.514 33.9758 136.87C31.2378 134.226 29.6996 130.64 29.6996 126.9C29.6996 123.161 31.2378 119.574 33.9758 116.93C36.7138 114.286 40.4274 112.8 44.2995 112.8C48.1716 112.8 51.8851 114.286 54.6231 116.93C57.3611 119.574 58.8993 123.161 58.8993 126.9ZM124.599 126.9C124.599 130.64 123.06 134.226 120.322 136.87C117.584 139.514 113.871 141 109.999 141C106.127 141 102.413 139.514 99.6751 136.87C96.9371 134.226 95.3989 130.64 95.3989 126.9C95.3989 123.161 96.9371 119.574 99.6751 116.93C102.413 114.286 106.127 112.8 109.999 112.8C113.871 112.8 117.584 114.286 120.322 116.93C123.06 119.574 124.599 123.161 124.599 126.9Z" fill="#242324"/>
</svg>
